<svg width="44" height="45" viewBox="0 0 44 45" fill="none" xmlns="http://www.w3.org/2000/svg">
<g id="Standard Collection 27" filter="url(#filter0_d_1_1047)">
<path id="Vector" d="M36.2693 14.6019L36.248 14.5796C36.2463 14.5784 36.2449 14.5767 36.2441 14.5748L22.9601 0.624843L9.01061 13.9089C9.009 13.9104 9.00646 13.9135 9.00646 13.9135L8.98346 13.9347C6.85011 15.9777 5.46085 18.6752 5.03654 21.5984C4.61222 24.5216 5.1772 27.5028 6.64165 30.0681C8.10612 32.6333 10.386 34.6355 13.1189 35.7561C15.8518 36.8767 18.8809 37.0517 21.7246 36.253C21.9639 36.1862 22.2178 36.1924 22.4535 36.2708C25.2546 37.2071 28.2884 37.1803 31.0727 36.1944C33.8569 35.2084 36.2316 33.3202 37.8195 30.8297C39.4074 28.3392 40.1174 25.3893 39.8366 22.4491C39.5557 19.5088 38.3001 16.7467 36.2693 14.6019ZM13.6324 23.0335C13.5645 23.0981 13.51 23.1756 13.4721 23.2612C13.4341 23.3469 13.4133 23.4392 13.4111 23.533C13.3766 25.9369 13.9983 28.3046 15.2094 30.3814C15.2369 30.4286 15.2488 30.4832 15.2434 30.5374C15.238 30.5917 15.2156 30.6428 15.1793 30.6836C15.1431 30.7245 15.0949 30.7527 15.0416 30.7644C14.9883 30.7761 14.9327 30.7707 14.8827 30.7489C13.9444 30.3269 13.0974 29.7262 12.3889 28.9804C10.9368 27.4553 10.1494 25.4162 10.1995 23.3111C10.2496 21.2059 11.1331 19.2067 12.6561 17.7525L22.777 8.11533L32.4146 18.2354C33.8649 19.762 34.65 21.8021 34.5972 23.9074C34.5445 26.0125 33.6583 28.0106 32.1334 29.4629C31.3892 30.1733 30.5139 30.7319 29.5563 31.1075C29.5052 31.1268 29.4493 31.1295 29.3967 31.1152C29.3441 31.1009 29.2974 31.0702 29.263 31.0278C29.2289 30.9853 29.2089 30.9331 29.2062 30.8785C29.2034 30.8241 29.218 30.7701 29.2478 30.7243C30.5591 28.7093 31.2961 26.3748 31.3795 23.9721C31.3818 23.8784 31.3654 23.7851 31.3315 23.6975C31.2975 23.61 31.2467 23.5301 31.1819 23.4622L26.6302 18.3915C26.5845 18.3516 26.5265 18.3288 26.4658 18.3274C26.4054 18.3259 26.3461 18.3457 26.2987 18.3834C26.2512 18.421 26.2186 18.4742 26.2062 18.5335C26.1939 18.5929 26.2028 18.6545 26.2314 18.708C27.9659 22.0365 26.29 26.7157 23.6239 29.255L23.6099 29.2683C23.242 29.6149 22.7522 29.8023 22.247 29.7897C21.7417 29.7772 21.2617 29.5658 20.9115 29.2015L20.8992 29.1884C18.3593 26.5219 16.9148 21.767 18.8102 18.5273C18.8413 18.4753 18.8532 18.4142 18.8438 18.3543C18.8344 18.2944 18.8043 18.2397 18.7588 18.1999C18.7132 18.1599 18.6551 18.1372 18.5945 18.1357C18.5339 18.1342 18.4748 18.1541 18.4273 18.1918L13.6324 23.0335Z" fill="#F53838"/>
</g>
<defs>
<filter id="filter0_d_1_1047" x="0.899139" y="0.624756" width="42.9975" height="44.3291" filterUnits="userSpaceOnUse" color-interpolation-filters="sRGB">
<feFlood flood-opacity="0" result="BackgroundImageFix"/>
<feColorMatrix in="SourceAlpha" type="matrix" values="0 0 0 0 0 0 0 0 0 0 0 0 0 0 0 0 0 0 127 0" result="hardAlpha"/>
<feOffset dy="4"/>
<feGaussianBlur stdDeviation="2"/>
<feComposite in2="hardAlpha" operator="out"/>
<feColorMatrix type="matrix" values="0 0 0 0 0 0 0 0 0 0 0 0 0 0 0 0 0 0 0.25 0"/>
<feBlend mode="normal" in2="BackgroundImageFix" result="effect1_dropShadow_1_1047"/>
<feBlend mode="normal" in="SourceGraphic" in2="effect1_dropShadow_1_1047" result="shape"/>
</filter>
</defs>
</svg>
